<?xml version="1.0" encoding="iso-8859-1"?>
<!-- Generator: Adobe Illustrator 18.1.1, SVG Export Plug-In . SVG Version: 6.00 Build 0)  -->
<svg xmlns="http://www.w3.org/2000/svg" xmlns:xlink="http://www.w3.org/1999/xlink" version="1.1" id="Capa_1" x="0px" y="0px" viewBox="0 0 326.344 326.344" style="enable-background:new 0 0 326.344 326.344;" xml:space="preserve" width="512px" height="512px">
<g>
	<path d="M163.308,179.81c0.044,0,0.087,0.011,0.131,0.011c6.005,0,10.878-4.873,10.878-10.878V67.988   c0-6.005-4.873-10.878-10.878-10.878c-6.005,0-10.878,4.873-10.878,10.878v43.899c-0.163,0.756-0.267,1.534-0.267,2.333v54.728   c0,6.005,4.873,10.878,10.878,10.878C163.221,179.826,163.264,179.81,163.308,179.81z" fill="#FFFFFF"/>
	<path d="M326.344,163.172C326.344,73.052,253.292,0,163.172,0S0,73.052,0,163.172   c0,14.174,1.811,27.919,5.211,41.032c2.643-15.365,16.023-27.097,32.129-27.097h1.534c-0.511-4.58-0.8-9.225-0.8-13.935   c0-68.978,56.12-125.098,125.098-125.098S288.27,94.194,288.27,163.172S232.15,288.27,163.172,288.27   c-3.916,0-7.789-0.207-11.612-0.56v3.612c0,14.734-9.818,27.206-23.257,31.247c11.237,2.448,22.898,3.775,34.87,3.775   C253.292,326.344,326.344,253.292,326.344,163.172z" fill="#FFFFFF"/>
	<path d="M140.681,286.204v-76.462c0-11.999-9.758-21.756-21.756-21.756H40.554h-3.214   c-11.999,0-21.756,9.758-21.756,21.756v23.045v58.541c0,11.999,9.758,21.756,21.756,21.756h61.347h20.239   c11.999,0,21.756-9.758,21.756-21.756V286.204z M121.487,230.508c-15.05,6.146-27.875,16.442-38.068,28.963   c-7.37,9.051-13.402,19.222-17.704,29.996c-0.451,1.131-1.164,2.143-2.012,3.013c-2.861,2.926-7.49,3.965-10.758,0.359   c-5.738-6.331-11.297-10.307-19.548-12.678c-8.887-2.551-5.858-15.73,2.42-15.034c0.528,0.044,1.071,0.136,1.637,0.299   c6.962,1.996,12.901,5.162,18.297,9.328c4.591-9.246,10.198-17.824,16.665-25.618c11.955-14.403,27-26.01,45.003-33.363   C126.551,212.047,130.483,226.831,121.487,230.508z" fill="#FFFFFF"/>
</g>
<g>
</g>
<g>
</g>
<g>
</g>
<g>
</g>
<g>
</g>
<g>
</g>
<g>
</g>
<g>
</g>
<g>
</g>
<g>
</g>
<g>
</g>
<g>
</g>
<g>
</g>
<g>
</g>
<g>
</g>
</svg>
