<?xml version="1.0" encoding="iso-8859-1"?>
<!-- Generator: Adobe Illustrator 16.0.0, SVG Export Plug-In . SVG Version: 6.00 Build 0)  -->
<!DOCTYPE svg PUBLIC "-//W3C//DTD SVG 1.1//EN" "http://www.w3.org/Graphics/SVG/1.1/DTD/svg11.dtd">
<svg xmlns="http://www.w3.org/2000/svg" xmlns:xlink="http://www.w3.org/1999/xlink" version="1.1" id="Capa_1" x="0px" y="0px" width="512px" height="512px" viewBox="0 0 775.397 775.398" style="enable-background:new 0 0 775.397 775.398;" xml:space="preserve">
<g>
	<g>
		<g>
			<path d="M722.623,651.23H52.775c-29.099,0-52.773-23.674-52.773-52.773v-331.76l386.633,173.097l388.763-173.062v331.725     C775.396,627.556,751.723,651.23,722.623,651.23z M19.796,297.247v301.209c0,18.186,14.794,32.979,32.979,32.979h669.848     c18.185,0,32.979-14.794,32.979-32.979V297.212l-368.989,164.26L19.796,297.247z" fill="#FFFFFF"/>
		</g>
		<g>
			<path d="M386.367,409.141L0,235.843v-58.891c0-29.105,23.674-52.784,52.774-52.784h669.849c14.099,0,27.354,5.49,37.318,15.458     c9.967,9.968,15.456,23.224,15.455,37.326l-0.15,57.662L386.367,409.141z M19.795,223.027l366.57,164.419l369.119-165.661     l0.116-44.86c0-8.79-3.43-17.075-9.657-23.304c-6.229-6.229-14.51-9.659-23.32-9.659H52.775     c-18.185,0-32.979,14.799-32.979,32.989L19.795,223.027L19.795,223.027z" fill="#FFFFFF"/>
		</g>
	</g>
</g>
<g>
</g>
<g>
</g>
<g>
</g>
<g>
</g>
<g>
</g>
<g>
</g>
<g>
</g>
<g>
</g>
<g>
</g>
<g>
</g>
<g>
</g>
<g>
</g>
<g>
</g>
<g>
</g>
<g>
</g>
</svg>
