<?xml version="1.0" encoding="iso-8859-1"?>
<!-- Generator: Adobe Illustrator 19.0.0, SVG Export Plug-In . SVG Version: 6.00 Build 0)  -->
<svg xmlns="http://www.w3.org/2000/svg" xmlns:xlink="http://www.w3.org/1999/xlink" version="1.1" id="Capa_1" x="0px" y="0px" viewBox="0 0 512 512" style="enable-background:new 0 0 512 512;" xml:space="preserve" width="512px" height="512px">
<g>
	<g>
		<path d="M510.152,354.88L472,309.104V96c0-22.056-17.944-40-40-40H256c-22.056,0-40,17.944-40,40v320c0,22.056,17.944,40,40,40    h128v8c0,2.12,0.84,4.16,2.344,5.656L416,499.312V512h16v-16c0-2.12-0.84-4.16-2.344-5.656L400,460.688V324    c0-6.616,5.384-12,12-12c6.616,0,12,5.384,12,12v52c0,2.12,0.84,4.16,2.344,5.656l32,32c2.296,2.296,5.736,2.976,8.72,1.736    c2.992-1.24,4.936-4.16,4.936-7.392v-73.904l24,28.8V512h16V360C512,358.128,511.344,356.32,510.152,354.88z M384,440H256    c-13.232,0-24-10.768-24-24v-8h152V440z M456,388.688l-16-16V324c0-15.44-12.56-28-28-28s-28,12.56-28,28v68H232V120h224V388.688z     M456,104H232v-8c0-13.232,10.768-24,24-24h176c13.232,0,24,10.768,24,24V104z" fill="#FFFFFF"/>
	</g>
</g>
<g>
	<g>
		<rect x="288" y="176" width="16" height="72" fill="#FFFFFF"/>
	</g>
</g>
<g>
	<g>
		<rect x="320" y="176" width="16" height="72" fill="#FFFFFF"/>
	</g>
</g>
<g>
	<g>
		<rect x="352" y="176" width="16" height="72" fill="#FFFFFF"/>
	</g>
</g>
<g>
	<g>
		<rect x="384" y="176" width="16" height="72" fill="#FFFFFF"/>
	</g>
</g>
<g>
	<g>
		<path d="M408,144H280c-13.232,0-24,10.768-24,24v88c0,13.232,10.768,24,24,24h128c13.232,0,24-10.768,24-24v-88    C432,154.768,421.232,144,408,144z M416,256c0,4.408-3.584,8-8,8H280c-4.416,0-8-3.592-8-8v-88c0-4.408,3.584-8,8-8h128    c4.416,0,8,3.592,8,8V256z" fill="#FFFFFF"/>
	</g>
</g>
<g>
	<g>
		<path d="M328,496H40c-13.232,0-24-10.768-24-24V96h72c4.424,0,8-3.584,8-8V16h232c13.232,0,24,10.768,24,24h16    c0-22.056-17.944-40-40-40H88c-2.216,0-4.216,0.896-5.664,2.352L2.352,82.336C0.896,83.784,0,85.784,0,88v384    c0,22.056,17.944,40,40,40h288c22.056,0,40-17.944,40-40h-16C352,485.232,341.232,496,328,496z M80,27.312V80H27.312L80,27.312z" fill="#FFFFFF"/>
	</g>
</g>
<g>
	<g>
		<rect x="64" y="128" width="16" height="72" fill="#FFFFFF"/>
	</g>
</g>
<g>
	<g>
		<rect x="96" y="128" width="16" height="72" fill="#FFFFFF"/>
	</g>
</g>
<g>
	<g>
		<rect x="160" y="128" width="16" height="72" fill="#FFFFFF"/>
	</g>
</g>
<g>
	<g>
		<rect x="128" y="128" width="16" height="72" fill="#FFFFFF"/>
	</g>
</g>
<g>
	<g>
		<rect x="40" y="256" width="160" height="16" fill="#FFFFFF"/>
	</g>
</g>
<g>
	<g>
		<rect x="40" y="288" width="160" height="16" fill="#FFFFFF"/>
	</g>
</g>
<g>
	<g>
		<rect x="40" y="320" width="160" height="16" fill="#FFFFFF"/>
	</g>
</g>
<g>
	<g>
		<rect x="40" y="352" width="160" height="16" fill="#FFFFFF"/>
	</g>
</g>
<g>
	<g>
		<rect x="40" y="384" width="160" height="16" fill="#FFFFFF"/>
	</g>
</g>
<g>
	<g>
		<rect x="40" y="416" width="160" height="16" fill="#FFFFFF"/>
	</g>
</g>
<g>
	<g>
		<rect x="40" y="448" width="160" height="16" fill="#FFFFFF"/>
	</g>
</g>
<g>
	<g>
		<rect x="64" y="216" width="16" height="16" fill="#FFFFFF"/>
	</g>
</g>
<g>
	<g>
		<rect x="96" y="216" width="16" height="16" fill="#FFFFFF"/>
	</g>
</g>
<g>
	<g>
		<rect x="128" y="216" width="16" height="16" fill="#FFFFFF"/>
	</g>
</g>
<g>
	<g>
		<rect x="160" y="216" width="16" height="16" fill="#FFFFFF"/>
	</g>
</g>
<g>
</g>
<g>
</g>
<g>
</g>
<g>
</g>
<g>
</g>
<g>
</g>
<g>
</g>
<g>
</g>
<g>
</g>
<g>
</g>
<g>
</g>
<g>
</g>
<g>
</g>
<g>
</g>
<g>
</g>
</svg>
