<?xml version="1.0" encoding="iso-8859-1"?>
<!-- Generator: Adobe Illustrator 19.0.0, SVG Export Plug-In . SVG Version: 6.00 Build 0)  -->
<svg xmlns="http://www.w3.org/2000/svg" xmlns:xlink="http://www.w3.org/1999/xlink" version="1.1" id="Layer_1" x="0px" y="0px" viewBox="0 0 511.999 511.999" style="enable-background:new 0 0 511.999 511.999;" xml:space="preserve" width="512px" height="512px">
<g>
	<g>
		<g>
			<path d="M501.326,422.372H10.664c-5.875,0-10.656,4.781-10.656,10.672S4.789,443.7,10.664,443.7h490.663     c5.891,0,10.672-4.766,10.672-10.656S507.217,422.372,501.326,422.372z" fill="#FFFFFF"/>
			<path d="M3.976,210.79l121.186,97.865c1.906,1.562,4.281,2.375,6.688,2.375c1.234,0,2.469-0.219,3.656-0.641l342.337-124.607     c1.594-0.57,3-1.508,4.156-2.734c0.359-0.391,9.156-9.82,17.031-22.078c11.78-18.328,15.562-33.687,11.202-45.655     c-4.359-11.961-17.108-21.305-37.921-27.765c-13.938-4.32-26.719-5.898-27.25-5.961c-1.656-0.203-3.344-0.008-4.938,0.57     l-127.561,46.429L158.879,69.019c-2.422-0.93-5.094-0.961-7.516-0.078l-62.671,22.82c-3.594,1.297-6.188,4.406-6.875,8.148     c-0.656,3.742,0.719,7.555,3.625,10.016l83.687,70.866l-38.28,13.93l-52.984-24.71c-2.562-1.195-5.5-1.32-8.156-0.359     L7.023,192.47c-3.609,1.312-6.234,4.477-6.875,8.266C-0.493,204.533,0.976,208.376,3.976,210.79z M113.255,105.519l41.64-15.157     l190.2,73.71l-113.779,41.414L113.255,105.519z M72.849,191.212l53,24.71c2.562,1.195,5.5,1.32,8.156,0.359l53.873-19.617     l34.375,29.101c1.969,1.656,4.406,2.523,6.891,2.523c1.234,0,2.453-0.211,3.641-0.641l146.279-53.233     c4.171-1.523,6.968-5.469,7.015-9.914c0.047-4.445-2.672-8.453-6.812-10.055l-36.5-14.148l102.201-37.203     c17.625,2.555,41.875,10.336,45.219,19.515c1.828,5.031-1.516,14.961-8.938,26.578c-4.969,7.773-10.531,14.398-13.203,17.461     L133.865,288.281L32.069,206.056L72.849,191.212z" fill="#FFFFFF"/>
		</g>
	</g>
</g>
<g>
</g>
<g>
</g>
<g>
</g>
<g>
</g>
<g>
</g>
<g>
</g>
<g>
</g>
<g>
</g>
<g>
</g>
<g>
</g>
<g>
</g>
<g>
</g>
<g>
</g>
<g>
</g>
<g>
</g>
</svg>
